<?xml version="1.0" encoding="UTF-8"?>
<svg width="100%" height="100%" viewBox="0 0 240 98" version="1.1" xmlns="http://www.w3.org/2000/svg">
  <rect x="0" y="0" width="240" height="98" fill="#ffffff"/>
  <text x="120" y="14" font-family="'Noto Sans TC','Microsoft JhengHei','PingFang TC',sans-serif" font-size="10" fill="#1a1a1a" font-weight="bold" text-anchor="middle">關於我們</text><rect x="10" y="22" width="50" height="30" rx="2" fill="#fafafa" stroke="#e0e0e0" stroke-width="1"/><circle cx="35" cy="32" r="5" fill="#cfd8dc"/><text x="35" y="46" font-family="'Noto Sans TC','Microsoft JhengHei','PingFang TC',sans-serif" font-size="5.2" fill="#8a8a8a" font-weight="normal" text-anchor="middle">資本額</text><rect x="66" y="22" width="50" height="30" rx="2" fill="#fafafa" stroke="#e0e0e0" stroke-width="1"/><circle cx="91" cy="32" r="5" fill="#cfd8dc"/><text x="91" y="46" font-family="'Noto Sans TC','Microsoft JhengHei','PingFang TC',sans-serif" font-size="5.2" fill="#8a8a8a" font-weight="normal" text-anchor="middle">員工人數</text><rect x="122" y="22" width="50" height="30" rx="2" fill="#fafafa" stroke="#e0e0e0" stroke-width="1"/><circle cx="147" cy="32" r="5" fill="#cfd8dc"/><text x="147" y="46" font-family="'Noto Sans TC','Microsoft JhengHei','PingFang TC',sans-serif" font-size="5.2" fill="#8a8a8a" font-weight="normal" text-anchor="middle">主要出口市場</text><rect x="178" y="22" width="50" height="30" rx="2" fill="#fafafa" stroke="#e0e0e0" stroke-width="1"/><circle cx="203" cy="32" r="5" fill="#cfd8dc"/><text x="203" y="46" font-family="'Noto Sans TC','Microsoft JhengHei','PingFang TC',sans-serif" font-size="5.2" fill="#8a8a8a" font-weight="normal" text-anchor="middle">主要出口產品</text><rect x="10" y="58" width="50" height="30" rx="2" fill="#fafafa" stroke="#e0e0e0" stroke-width="1"/><circle cx="35" cy="68" r="5" fill="#cfd8dc"/><text x="35" y="82" font-family="'Noto Sans TC','Microsoft JhengHei','PingFang TC',sans-serif" font-size="5.2" fill="#8a8a8a" font-weight="normal" text-anchor="middle">成立年份</text><rect x="66" y="58" width="50" height="30" rx="2" fill="#fafafa" stroke="#e0e0e0" stroke-width="1"/><circle cx="91" cy="68" r="5" fill="#cfd8dc"/><text x="91" y="82" font-family="'Noto Sans TC','Microsoft JhengHei','PingFang TC',sans-serif" font-size="5.2" fill="#8a8a8a" font-weight="normal" text-anchor="middle">工廠所在地</text><rect x="122" y="58" width="50" height="30" rx="2" fill="#fafafa" stroke="#e0e0e0" stroke-width="1"/><circle cx="147" cy="68" r="5" fill="#cfd8dc"/><text x="147" y="82" font-family="'Noto Sans TC','Microsoft JhengHei','PingFang TC',sans-serif" font-size="5.2" fill="#8a8a8a" font-weight="normal" text-anchor="middle">年營業額</text><rect x="178" y="58" width="50" height="30" rx="2" fill="#fafafa" stroke="#e0e0e0" stroke-width="1"/><circle cx="203" cy="68" r="5" fill="#cfd8dc"/><text x="203" y="82" font-family="'Noto Sans TC','Microsoft JhengHei','PingFang TC',sans-serif" font-size="5.2" fill="#8a8a8a" font-weight="normal" text-anchor="middle">認證標章</text>
</svg>
