<?xml version="1.0"?>

<svg width="100%" height="100%" viewBox="0 0 240 94" version="1.1" xmlns="http://www.w3.org/2000/svg" xmlns:xlink="http://www.w3.org/1999/xlink" xml:space="preserve" xmlns:serif="http://www.serif.com/" style="fill-rule:evenodd;clip-rule:evenodd;stroke-linejoin:round;stroke-miterlimit:2;">
    <g transform="matrix(1,0,0,1,0,-106)">
        <g id="bigBannerTree" transform="matrix(1,0,0,1,0,100)">
            <g id="tree" transform="matrix(1,0,0,1,-10,0)">
                <g transform="matrix(0.444444,0,0,0.648276,0.222222,-8.91034)">
                    <rect x="22" y="23" width="99" height="145" style="fill:white;"></rect>
                    <path d="M121,23L22,23L22,168L121,168L121,23ZM24.25,24.543L24.25,166.457L118.75,166.457L118.75,24.543L24.25,24.543Z" style="fill:rgb(191,191,191);"></path>
                </g>
                <g transform="matrix(1.25,0,0,1,-5.5,0)">
                    <g transform="matrix(1,0,0,0.166667,-7.10543e-15,-101.333)">
                        <rect x="14" y="770" width="32" height="6" style="fill:rgb(204,204,204);"></rect>
                    </g>
                    <g transform="matrix(1,0,0,0.166667,-1.06581e-14,-93.3333)">
                        <rect x="14" y="770" width="32" height="6" style="fill:rgb(204,204,204);"></rect>
                    </g>
                    <g transform="matrix(1,0,0,0.166667,-1.42109e-14,-85.3333)">
                        <rect x="14" y="770" width="32" height="6" style="fill:rgb(204,204,204);"></rect>
                    </g>
                    <g transform="matrix(1,0,0,0.166667,-1.77636e-14,-77.3333)">
                        <rect x="14" y="770" width="32" height="6" style="fill:rgb(204,204,204);"></rect>
                    </g>
                    <g transform="matrix(1,0,0,0.166667,-2.13163e-14,-69.3333)">
                        <rect x="14" y="770" width="32" height="6" style="fill:rgb(204,204,204);"></rect>
                    </g>
                    <g transform="matrix(1,0,0,0.166667,-2.4869e-14,-61.3333)">
                        <rect x="14" y="770" width="32" height="6" style="fill:rgb(204,204,204);"></rect>
                    </g>
                    <g transform="matrix(1,0,0,0.166667,-2.84217e-14,-53.3333)">
                        <rect x="14" y="770" width="32" height="6" style="fill:rgb(204,204,204);"></rect>
                    </g>
                    <g transform="matrix(1,0,0,0.166667,-3.19744e-14,-45.3333)">
                        <rect x="14" y="770" width="32" height="6" style="fill:rgb(204,204,204);"></rect>
                    </g>
                    <g transform="matrix(1,0,0,0.166667,-3.55271e-14,-37.3333)">
                        <rect x="14" y="770" width="32" height="6" style="fill:rgb(204,204,204);"></rect>
                    </g>
                    <g transform="matrix(1,0,0,0.166667,-7.10543e-15,-109.333)">
                        <rect x="14" y="770" width="32" height="6" style="fill:rgb(153,153,153);"></rect>
                    </g>
                </g>
            </g>
            <g transform="matrix(1.9798,0,0,0.482759,0.444444,-5.10345)">
                <rect x="22" y="23" width="99" height="145" style="fill:rgb(166,166,166);"></rect>
            </g>
            <g transform="matrix(2.93485,0,0,1,36.3455,-32)">
                <g transform="matrix(1.52742,0,0,2,-7.53159,-439)">
                    <rect x="14" y="251" width="29" height="2" style="fill:white;"></rect>
                </g>
                <g transform="matrix(1.52742,0,0,2,-7.53159,-432)">
                    <rect x="14" y="251" width="29" height="2" style="fill:white;"></rect>
                </g>
                <g transform="matrix(0.587471,0,0,2,19.2571,-425)">
                    <rect x="14" y="251" width="29" height="2" style="fill:white;"></rect>
                </g>
                <g transform="matrix(0.892956,0,0,3,10.5508,-701)">
                    <rect x="14" y="251" width="29" height="2" style="fill:white;"></rect>
                </g>
            </g>
            <g transform="matrix(1,0,0,1,22,-7)">
                <g transform="matrix(1.26582,0,0,1.42857,-26.519,-35.8688)">
                    <path d="M135.5,75.5C135.5,73.567 133.732,72 131.55,72L99.95,72C97.768,72 96,73.567 96,75.5C96,77.433 97.768,79 99.95,79L131.55,79C133.732,79 135.5,77.433 135.5,75.5L135.5,75.5Z" style="fill:rgb(217,217,217);"></path>
                </g>
                <g transform="matrix(1,0,0,1,10.5,0)">
                    <g transform="matrix(1.33333,0,0,1.33333,2.41667,-28.6667)">
                        <circle cx="95.5" cy="75.5" r="1.5" style="fill:rgb(128,128,128);"></circle>
                    </g>
                    <g transform="matrix(1.33333,0,0,1.33333,-7.58333,-28.6667)">
                        <circle cx="95.5" cy="75.5" r="1.5" style="fill:rgb(128,128,128);"></circle>
                    </g>
                    <g transform="matrix(1.33333,0,0,1.33333,-17.5833,-28.6667)">
                        <circle cx="95.5" cy="75.5" r="1.5" style="fill:rgb(128,128,128);"></circle>
                    </g>
                    <g transform="matrix(1.33333,0,0,1.33333,-37.5833,-28.6667)">
                        <circle cx="95.5" cy="75.5" r="1.5" style="fill:rgb(128,128,128);"></circle>
                    </g>
                    <g transform="matrix(2,0,0,2,-91.25,-79)">
                        <circle cx="95.5" cy="75.5" r="1.5" style="fill:white;"></circle>
                    </g>
                </g>
            </g>
            <g transform="matrix(0.942809,-0.942809,0.942809,0.942809,-83.9933,-15.5685)">
                <path d="M46,100L46,102L42,102L42,106L40,106L40,100L46,100Z" style="fill:rgb(217,217,217);"></path>
            </g>
            <g transform="matrix(-0.942809,0.942809,-0.942809,-0.942809,367.993,97.5685)">
                <path d="M46,100L46,102L42,102L42,106L40,106L40,100L46,100Z" style="fill:rgb(217,217,217);"></path>
            </g>
        </g>
        <g id="bigBanner">
        </g>
    </g>
</svg>
