<?xml version="1.0"?>

<svg width="100%" height="100%" viewBox="0 0 240 62" version="1.1" xmlns="http://www.w3.org/2000/svg" xmlns:xlink="http://www.w3.org/1999/xlink" xml:space="preserve" xmlns:serif="http://www.serif.com/" style="fill-rule:evenodd;clip-rule:evenodd;stroke-linejoin:round;stroke-miterlimit:2;">
    <g transform="matrix(1,0,0,1,0,-1623)">
        <g id="footer" transform="matrix(1,0,0,1,0,100)">
            <g transform="matrix(2.42424,0,0,0.234483,-53.3333,1517.61)">
                <rect x="22" y="23" width="99" height="145" style="fill:rgb(128,128,128);"></rect>
            </g>
            <g transform="matrix(2.24138,0,0,1,106.621,1319)">
                <rect x="14" y="251" width="29" height="2" style="fill:rgb(115,115,115);"></rect>
            </g>
            <g transform="matrix(1.13793,0,0,1,44.069,1318)">
                <rect x="14" y="251" width="29" height="2" style="fill:rgb(115,115,115);"></rect>
            </g>
            <g id="圖層-1" transform="matrix(0.4375,0,0,0.4375,93.0628,1492.36)">
                <g transform="matrix(0.163354,0,0,0.163354,27.8036,173.35)">
                    <ellipse cx="-0.005" cy="-12.477" rx="12.148" ry="12.477" style="fill:rgb(191,191,191);"></ellipse>
                </g>
                <g transform="matrix(0.163354,0,0,0.163354,11.666,183.35)">
                    <path d="M0,-37.91L10.061,-37.91L10.061,12.716L26.992,12.716L26.992,-37.91L37.04,-37.91L37.04,-50.626L0,-50.626L0,-37.91Z" style="fill:rgb(35,31,32);fill-rule:nonzero;"></path>
                </g>
                <g transform="matrix(0.163354,0,0,0.163354,22.1979,177.969)">
                    <path d="M0,29.002C0,32.167 -0.185,34.102 -0.567,34.842C-0.95,35.574 -1.762,35.938 -3.022,35.938C-4.354,35.938 -5.227,35.473 -5.686,34.535C-6.113,33.598 -6.349,31.507 -6.349,28.243C-6.349,25.373 -6.1,23.194 -5.575,21.679C-5.069,20.162 -3.202,18.295 0,16.032L0,29.002ZM12.859,-14.619C9.399,-16.907 4.302,-18.059 -2.477,-18.059C-8.141,-18.059 -12.744,-17.044 -16.288,-15.023C-19.843,-13.011 -22.2,-10.675 -23.368,-8.043C-24.551,-5.405 -25.133,-1.654 -25.133,3.208L-25.133,7.444L-6.349,7.444L-6.349,0.868C-6.349,-2.668 -6.182,-4.852 -5.857,-5.683C-5.533,-6.528 -4.668,-6.929 -3.325,-6.929C-2.134,-6.929 -1.287,-6.436 -0.765,-5.433C-0.253,-4.434 0,-2.292 0,0.961C0,3.629 -0.232,5.366 -0.699,6.231C-1.146,7.076 -4.668,8.725 -11.25,11.166C-17.395,13.441 -21.244,15.435 -22.802,17.145C-24.357,18.856 -25.133,22.066 -25.133,26.738L-25.133,31.887C-25.133,38.241 -23.683,42.352 -20.756,44.231C-17.828,46.122 -14.61,47.061 -11.118,47.061C-8.432,47.061 -6.134,46.499 -4.193,45.375C-2.26,44.242 -0.699,42.559 0.532,40.298L0.532,45.84L20.104,45.84L20.104,14.323C20.104,3.964 19.769,-2.863 19.063,-6.197C18.376,-9.531 16.296,-12.332 12.859,-14.619" style="fill:rgb(35,31,32);fill-rule:nonzero;"></path>
                </g>
                <g transform="matrix(0.163354,0,0,0.163354,45.0258,177.867)">
                    <path d="M0,28.991C0,32.155 -0.197,34.107 -0.575,34.844C-0.955,35.571 -1.768,35.927 -3.039,35.927C-4.353,35.927 -5.239,35.473 -5.703,34.537C-6.129,33.602 -6.352,31.502 -6.352,28.24C-6.352,25.378 -6.103,23.208 -5.587,21.68C-5.074,20.164 -3.202,18.285 0,16.042L0,28.991ZM12.858,-14.618C9.404,-16.922 4.288,-18.07 -2.49,-18.07C-8.155,-18.07 -12.76,-17.051 -16.307,-15.022C-19.853,-12.997 -22.208,-10.673 -23.389,-8.042C-24.557,-5.399 -25.145,-1.653 -25.145,3.193L-25.145,7.449L-6.352,7.449L-6.352,0.87C-6.352,-2.667 -6.197,-4.862 -5.861,-5.695C-5.533,-6.522 -4.685,-6.919 -3.34,-6.919C-2.143,-6.919 -1.277,-6.437 -0.786,-5.431C-0.265,-4.429 0,-2.291 0,0.974C0,3.63 -0.227,5.376 -0.702,6.22C-1.161,7.069 -4.685,8.726 -11.262,11.155C-17.411,13.43 -21.267,15.431 -22.823,17.141C-24.375,18.863 -25.145,22.055 -25.145,26.744L-25.145,31.888C-25.145,38.235 -23.678,42.353 -20.751,44.236C-17.834,46.111 -14.618,47.061 -11.133,47.061C-8.455,47.061 -6.146,46.491 -4.221,45.377C-2.273,44.244 -0.702,42.559 0.516,40.3L0.516,45.845L20.105,45.845L20.105,14.312C20.105,3.966 19.759,-2.865 19.056,-6.195C18.36,-9.522 16.293,-12.338 12.858,-14.618" style="fill:rgb(35,31,32);fill-rule:nonzero;"></path>
                </g>
                <g transform="matrix(0.163354,0,0,0.163354,9.76032,140.809)">
                    <rect x="101.984" y="209.801" width="16.932" height="63.342" style="fill:rgb(35,31,32);"></rect>
                </g>
                <g transform="matrix(0.163354,0,0,0.163354,37.9069,185.427)">
                    <path d="M0,-63.342C-2.151,-48.698 -3.708,-33.664 -4.71,-18.228L-6.73,-42.466C-7.748,-54.55 -8.338,-61.507 -8.491,-63.342L-26.019,-63.342C-28.504,-45.437 -30.078,-30.903 -30.761,-19.748L-32.492,-41.27L-34.258,-63.342L-50.807,-63.342L-43.166,0L-22.14,0C-19.753,-16.847 -18.178,-27.945 -17.413,-33.327C-15.803,-20.86 -14.08,-9.738 -12.211,0L8.938,0L16.542,-63.342L0,-63.342Z" style="fill:rgb(35,31,32);fill-rule:nonzero;"></path>
                </g>
                <g transform="matrix(0.163354,0,0,0.163354,52.9761,180.77)">
                    <path d="M0,-6.322L-9.521,-34.832L-23.678,-34.832L-23.678,28.51L-9.521,28.51L-9.521,-0.303L-0.656,28.51L14.145,28.51L14.145,-34.832L0,-34.832L0,-6.322Z" style="fill:rgb(35,31,32);fill-rule:nonzero;"></path>
                </g>
                <g transform="matrix(0.163354,0,0,0.163354,90.2919,178.627)">
                    <path d="M0,0.014C-0.843,55 -43.256,97.09 -98.153,97.954C-153.041,97.057 -195.46,55.085 -196.324,0.014C-195.46,-55.046 -153.063,-97.047 -98.153,-97.94C-43.267,-97.07 -0.843,-55.013 0,0.014" style="fill:rgb(35,31,32);fill-rule:nonzero;"></path>
                </g>
                <g transform="matrix(0.163354,0,0,0.163354,58.2216,180.273)">
                    <path d="M0,-10.064C0.164,-21.199 2.078,-31.78 5.4,-41.617L-10.733,-41.617L-10.733,-31.525L-15.086,-31.525L-15.086,-21.284L-10.733,-21.284L-10.733,11.531C-10.733,17.994 -10.534,22.103 -10.175,23.817C-9.806,25.55 -8.872,27.086 -7.38,28.436C-5.872,29.775 -4.125,30.639 -2.163,31.002C-0.279,31.355 2.859,31.536 7.18,31.553L9.436,31.553C3.586,19.031 0.228,4.987 0,-10.064" style="fill:rgb(35,31,32);fill-rule:nonzero;"></path>
                </g>
                <g transform="matrix(0.163354,0,0,0.163354,91.0227,179.086)">
                    <path d="M0,-15.52C-1.346,-18.657 -3.656,-21.194 -6.789,-23.219C-5.375,-16.656 -4.569,-9.837 -4.474,-2.797C-4.504,0.756 -4.753,4.26 -5.148,7.699L2.23,7.699L2.23,-0.922C2.23,-7.187 1.487,-12.056 0,-15.52" style="fill:rgb(35,31,32);fill-rule:nonzero;"></path>
                </g>
                <g transform="matrix(0.163354,0,0,0.163354,88.6987,181.023)">
                    <path d="M0,27.701C1.77,27.395 3.387,26.963 4.807,26.368C7.729,25.148 10.159,23.316 12.049,20.88C13.958,18.459 15.16,16.154 15.682,14.004C16.204,11.835 16.457,8.77 16.457,4.762L16.457,0L8.521,0C6.979,9.83 4.071,19.134 0,27.701" style="fill:rgb(35,31,32);fill-rule:nonzero;"></path>
                </g>
                <g transform="matrix(0.163354,0,0,0.163354,62.7936,172.685)">
                    <path d="M0,85.623C-1.173,82.422 -2.238,79.269 -3.208,75.616C-11.325,72.921 -8.451,73.587 -8.983,72.705C-9.333,72.177 -10.51,69.845 -11.611,65.294C-14.273,52.841 -15.36,39.742 -14.517,25.98C-12.725,25.766 -9.808,25.564 -7.551,25.386C-7.269,20.993 -6.938,17.125 -6.335,12.934C-8.626,13.375 -11.057,13.79 -12.839,14.219C-12.274,10.379 -10.867,3.577 -10.07,0C-16.227,1.443 -22.539,4.236 -22.539,4.236C-24.17,7.365 -28.491,26.097 -28.59,36.088C-28.305,52.219 -25.88,64.667 -18.531,77.471C-15.758,81.808 -2.749,84.503 0,85.623" style="fill:rgb(191,191,191);fill-rule:nonzero;"></path>
                </g>
                <g transform="matrix(0.163354,0,0,0.163354,64.6211,185.213)">
                    <path d="M0,-57.085C0.537,-61.094 1.081,-64.715 1.748,-68.523C-4.501,-67.727 -9.422,-66.853 -14.038,-66.013C-17.64,-39.496 -14.654,-10.432 -7.649,9.695C-3.272,11.385 1.429,12.929 7.305,14.384C4.897,5.98 3.026,-3.408 1.723,-14.902C0.812,-23.382 0.812,-28.676 1.048,-31.182C1.379,-33.672 2.26,-35.426 4.039,-36.832C5.869,-38.214 8.428,-38.894 12.674,-38.849C12.582,-50.351 13.08,-60.896 14.056,-71.469C7.858,-70.115 3.521,-65.799 0,-57.085" style="fill:rgb(191,191,191);fill-rule:nonzero;"></path>
                </g>
                <g transform="matrix(0.163354,0,0,0.163354,72.0823,175.432)">
                    <path d="M0,67.062C-0.432,67.989 -1.248,68.323 -2.774,68.323C-4.357,68.195 -5.327,67.604 -5.965,66.364C-6.545,65.107 -7.014,62.654 -7.294,58.026C-7.558,53.98 -7.335,50.981 -6.847,48.726C-6.158,46.422 -4.272,43.952 -0.216,40.335C-0.069,47.235 0.119,53.249 0.334,59.34C0.518,63.849 0.364,66.077 0,67.062M15.819,-8.532C11.283,-12.093 5.37,-13.576 -3.127,-13.406C-10.162,-13.075 -15.215,-11.446 -19.551,-8.201C-23.855,-4.882 -26.384,-1.496 -27.934,2.626C-29.353,6.773 -30.154,12.153 -30.154,19.844C-30.154,22.04 -30.117,24.036 -30.069,26.231C-23.244,26.38 -16.287,26.518 -8.359,26.602C-8.38,23.045 -8.404,19.655 -8.404,16.098C-8.454,10.322 -8.075,7.141 -7.685,5.767C-7.194,4.421 -6.276,3.762 -4.504,3.734C-2.974,3.734 -1.946,4.478 -1.329,6.03C-0.718,7.635 -0.441,10.868 -0.426,16.332C-0.462,20.653 -0.718,23.255 -1.274,24.686C-2.03,26.077 -6.181,28.66 -14.146,32.499C-21.568,35.974 -25.321,38.578 -26.946,41.01C-28.529,43.548 -28.972,47.853 -28.286,54.356C-27.953,56.696 -27.736,58.904 -27.464,61.136C-26.318,69.484 -24.028,73.575 -20.785,76.144C-17.306,78.585 -14.224,79.931 -10.416,80.295C-7.558,80.638 -5.327,80.27 -3.217,79.171C-1.202,78.112 0.322,76.483 1.632,73.804C1.763,76.072 1.885,78.061 2.021,80.016C9.353,80.413 16.312,80.396 23.712,80.133C24.327,68.749 24.776,54.785 25.003,37.83C25.208,21.053 24.675,10.233 23.741,4.733C22.765,-0.816 20.239,-4.822 15.819,-8.532" style="fill:rgb(191,191,191);fill-rule:nonzero;"></path>
                </g>
                <g transform="matrix(0.163354,0,0,0.163354,81.6884,172.893)">
                    <path d="M0,71.131C-0.636,75.884 -1.232,78.459 -1.867,79.607C-2.542,80.808 -3.373,81.385 -4.775,81.603C-5.968,81.749 -6.708,81.385 -6.95,80.464C-7.297,79.456 -7.198,77.561 -6.771,74.142C-5.187,60.167 -4.36,45.05 -4.572,28.751C-4.557,24.81 -4.455,22.607 -4.045,21.491C-3.547,20.405 -2.811,19.98 -1.402,20C-0.02,20.073 0.918,20.607 1.33,21.863C1.852,23.056 2.074,25.258 2.201,28.852C2.444,43.947 1.609,57.96 0,71.131M-3.728,-24.518C-1.422,-14.56 0.361,-2.932 1.452,11.319C-0.621,8.611 -2.693,6.784 -5.173,5.288C-7.672,3.866 -10.228,3.147 -13.206,2.884C-17.173,2.731 -20.231,3.563 -23.134,5.754C-26.065,8.081 -27.736,10.543 -28.565,13.691C-29.315,16.908 -29.594,21.968 -29.604,30.012C-29.531,46.319 -29.879,61.407 -30.533,75.238C-30.812,81.765 -30.691,85.573 -30.111,88.009C-29.464,90.523 -28.032,92.221 -25.559,93.777C-23.064,95.273 -20.427,95.649 -16.979,95.324C-14.445,94.908 -12.198,94.229 -9.72,92.903C-7.282,91.553 -5.041,89.84 -2.646,87.351C-2.979,89.048 -3.296,90.523 -3.702,92.156C3.045,90.924 8.567,89.573 13.853,88.001C22.929,58.783 22.915,8.749 13.812,-20.343C8.488,-21.968 2.955,-23.289 -3.728,-24.518" style="fill:rgb(191,191,191);fill-rule:nonzero;"></path>
                </g>
                <g transform="matrix(0.163354,0,0,0.163354,88.018,184.049)">
                    <path d="M0,-43.484C0,-44.713 1.716,-45.368 2.775,-45.319C4.258,-45.238 4.536,-44.478 4.849,-43.351C5.195,-42.255 5.471,-39.948 5.575,-36.12C5.612,-34.321 5.575,-32.592 5.529,-30.802C3.62,-30.074 1.415,-30.175 -0.015,-30.103C0.059,-32.022 0.147,-34.294 0.032,-36.189C-0.015,-40.542 -0.168,-42.486 0,-43.484M3.704,-14.509C3.17,-11.398 2.627,-8.642 1.877,-5.712C1.052,-2.364 0.311,-0.384 -0.315,0.86C-0.912,2.033 -2.24,2.817 -3.115,3.164C-3.833,3.455 -4.219,3.253 -4.197,2.525C-4.236,1.762 -3.686,0.089 -2.975,-3.096C-1.693,-8.075 -1.382,-12.881 -0.78,-18.362L-0.168,-18.362C3.135,-18.924 8.466,-20.399 12.998,-22.484C13.716,-26.72 13.526,-29.702 13.562,-34.119C13.526,-38.691 13.267,-44.321 12.544,-48.633C11.552,-55.541 6.467,-57.808 1.998,-58.483C-0.881,-58.927 -4.805,-58.507 -7.361,-56.89C-9.901,-55.229 -11.577,-52.623 -12.838,-48.451C-13.956,-44.212 -14.362,-38.663 -14.542,-30.899C-14.722,-22.286 -15.548,-14.558 -16.71,-6.557C-17.753,-0.518 -18.276,3.313 -18.36,6.015C-18.391,8.673 -18.027,10.617 -17.143,12.331C-16.239,13.971 -14.899,14.776 -12.885,14.971C-9.162,15.443 -1.471,13.976 3.292,9.231C8.055,4.494 10.687,-8.418 12.829,-17.727C11.979,-17.428 6.827,-15.083 3.704,-14.509" style="fill:rgb(191,191,191);fill-rule:nonzero;"></path>
                </g>
            </g>
            <g transform="matrix(1,0,0,1,-73,1474)">
                <g transform="matrix(0.72,0,0,0.75,19.72,15.75)">
                    <g transform="matrix(1.04167,0,0,0.333333,172.611,56.3333)">
                        <rect x="12" y="8" width="48" height="48" style="fill:rgb(166,166,166);"></rect>
                    </g>
                    <g transform="matrix(1,0,0,1,17.7232,-872.663)">
                        <text x="173.915px" y="942.591px" style="font-family:'CenturyGothic', 'Century Gothic', sans-serif;font-size:8px;fill:white;">Subscribe</text>
                    </g>
                </g>
                <g transform="matrix(1.5,0,0,0.25,63,58)">
                    <rect x="12" y="8" width="48" height="48" style="fill:white;"></rect>
                </g>
            </g>
            <g transform="matrix(0.636364,0,0,0.636364,147.182,1064)">
                <circle cx="28" cy="748" r="11" style="fill:rgb(244,244,244);"></circle>
            </g>
            <g transform="matrix(0.636364,0,0,0.636364,181.182,1064)">
                <circle cx="28" cy="748" r="11" style="fill:rgb(244,244,244);"></circle>
            </g>
            <g transform="matrix(0.636364,0,0,0.636364,164.182,1064)">
                <circle cx="28" cy="748" r="11" style="fill:rgb(244,244,244);"></circle>
            </g>
            <g transform="matrix(1,0,0,1,-1,0)">
                <g transform="matrix(1,0,0,1,40,-130)">
                    <rect x="173" y="1660" width="20" height="20" style="fill:rgb(244,244,244);"></rect>
                </g>
                <g>
                    <g transform="matrix(0.25,0,0,0.25,170.75,1116)">
                        <path d="M193,1660L173,1660L173,1680L193,1680L193,1660ZM177,1664L177,1676L189,1676L189,1664L177,1664Z" style="fill:rgb(89,89,89);"></path>
                    </g>
                    <g transform="matrix(1,0,0,1,-3.5,-107.5)">
                        <rect x="219" y="1640" width="2" height="2" style="fill:rgb(89,89,89);"></rect>
                    </g>
                </g>
                <g transform="matrix(1,0,0,1,13,0)">
                    <g transform="matrix(0.25,0,0,0.25,170.75,1116)">
                        <path d="M193,1660L173,1660L173,1680L193,1680L193,1660ZM177,1664L177,1676L189,1676L189,1664L177,1664Z" style="fill:rgb(89,89,89);"></path>
                    </g>
                    <g transform="matrix(1,0,0,1,-3.5,-107.5)">
                        <rect x="219" y="1640" width="2" height="2" style="fill:rgb(89,89,89);"></rect>
                    </g>
                </g>
                <g transform="matrix(1,0,0,1,0,13)">
                    <g transform="matrix(0.25,0,0,0.25,170.75,1116)">
                        <path d="M193,1660L173,1660L173,1680L193,1680L193,1660ZM177,1664L177,1676L189,1676L189,1664L177,1664Z" style="fill:rgb(89,89,89);"></path>
                    </g>
                    <g transform="matrix(1,0,0,1,-3.5,-107.5)">
                        <rect x="219" y="1640" width="2" height="2" style="fill:rgb(89,89,89);"></rect>
                    </g>
                </g>
                <g transform="matrix(1,0,0,1,0,-100)">
                    <path d="M214,1637L220,1637L220,1631L226,1631L226,1637L232,1637L232,1649L220,1649L220,1643L214,1643L214,1637Z" style="fill:rgb(89,89,89);"></path>
                </g>
                <g>
                    <g transform="matrix(1,0,0,1,-0.5,-103)">
                        <rect x="216.5" y="1640" width="2" height="2" style="fill:white;"></rect>
                    </g>
                    <g transform="matrix(1,0,0,1,3.5,-101)">
                        <rect x="216.5" y="1640" width="2" height="2" style="fill:white;"></rect>
                    </g>
                    <g transform="matrix(1,0,0,1,13.5,-93)">
                        <rect x="216.5" y="1640" width="2" height="2" style="fill:white;"></rect>
                    </g>
                    <g transform="matrix(1,0,0,1,6.5,-99)">
                        <rect x="216.5" y="1640" width="2" height="2" style="fill:white;"></rect>
                    </g>
                    <g transform="matrix(1,0,0,1,5.5,-107)">
                        <rect x="216.5" y="1640" width="2" height="2" style="fill:white;"></rect>
                    </g>
                    <g transform="matrix(-1,0,0,-1,448.5,3185)">
                        <rect x="216.5" y="1640" width="2" height="2" style="fill:white;"></rect>
                    </g>
                    <g transform="matrix(-1,0,0,-1,442.5,3187)">
                        <rect x="216.5" y="1640" width="2" height="2" style="fill:white;"></rect>
                    </g>
                    <g transform="matrix(-1,0,0,-1,432.5,3183)">
                        <rect x="216.5" y="1640" width="2" height="2" style="fill:white;"></rect>
                    </g>
                    <g transform="matrix(-1,0,0,-1,436.5,3183)">
                        <rect x="216.5" y="1640" width="2" height="2" style="fill:white;"></rect>
                    </g>
                    <g transform="matrix(-1,0,0,-1,446.5,3183)">
                        <rect x="216.5" y="1640" width="2" height="2" style="fill:white;"></rect>
                    </g>
                    <g transform="matrix(-1,0,0,-1,444.5,3189)">
                        <rect x="216.5" y="1640" width="2" height="2" style="fill:white;"></rect>
                    </g>
                    <g transform="matrix(-1,0,0,-1,442.5,3179)">
                        <rect x="216.5" y="1640" width="2" height="2" style="fill:white;"></rect>
                    </g>
                    <g transform="matrix(-1,0,0,-1,446.5,3179)">
                        <rect x="216.5" y="1640" width="2" height="2" style="fill:white;"></rect>
                    </g>
                    <g transform="matrix(1,0,0,1,3.5,-97)">
                        <rect x="216.5" y="1640" width="2" height="2" style="fill:white;"></rect>
                    </g>
                    <g transform="matrix(1,0,0,1,3.5,-109)">
                        <rect x="216.5" y="1640" width="2" height="2" style="fill:white;"></rect>
                    </g>
                </g>
            </g>
        </g>
        <g id="aboutUsIcon2">
        </g>
        <g id="adv">
        </g>
        <g transform="matrix(1.97727,0,0,1,102.318,1211)">
            <g id="smartModule0">
            </g>
        </g>
        <g id="smartModule">
        </g>
        <g transform="matrix(1,0,0,1,-10,1044)">
            <g id="smartModuleTree">
                <g id="tree">
                </g>
            </g>
        </g>
        <g id="header">
        </g>
        <g id="contactUs">
        </g>
        <g id="aboutUsIcon">
        </g>
        <g id="aboutUsTree" transform="matrix(1,0,0,1,0,720)">
            <g id="tree1">
            </g>
        </g>
        <g transform="matrix(0.935252,0,0,1,90.9065,600)">
            <g id="aboutUs">
            </g>
        </g>
        <g id="news">
        </g>
        <g id="newsSlide">
        </g>
        <g transform="matrix(1,0,0,1,6,211)">
            <g id="iStage">
            </g>
        </g>
        <g id="bigBannerTree" transform="matrix(1,0,0,1,0,100)">
            <g id="tree2">
            </g>
        </g>
        <g id="bigBanner">
        </g>
    </g>
</svg>
