<?xml version="1.0" encoding="UTF-8"?>
<svg width="100%" height="100%" viewBox="0 0 240 104" version="1.1" xmlns="http://www.w3.org/2000/svg">
  <rect x="0" y="0" width="240" height="104" fill="#ffffff"/>
  <text x="120" y="14" font-family="'Noto Sans TC','Microsoft JhengHei','PingFang TC',sans-serif" font-size="10" fill="#1a1a1a" font-weight="bold" text-anchor="middle">產品展示</text><rect x="120" y="20" width="110" height="74" rx="0" fill="#dcdcdc"/><circle cx="155.2" cy="46.6" r="5.9" fill="#c9c9c9"/><path d="M133.2 80.7 L157.4 55.5 L175.0 70.3 L194.8 48.1 L219.0 80.7 Z" fill="#c9c9c9"/><rect x="120" y="78" width="110" height="16" rx="0" fill="#000000" fill-opacity=".5"/><text x="124" y="89" font-family="'Noto Sans TC','Microsoft JhengHei','PingFang TC',sans-serif" font-size="6.4" fill="#ffffff" font-weight="bold" text-anchor="start">產品名稱</text><rect x="10" y="20" width="50" height="32" rx="0" fill="#dcdcdc"/><circle cx="26.0" cy="31.5" r="2.6" fill="#c9c9c9"/><path d="M16.0 46.2 L27.0 35.4 L35.0 41.8 L44.0 32.2 L55.0 46.2 Z" fill="#c9c9c9"/><text x="10" y="56" font-family="'Noto Sans TC','Microsoft JhengHei','PingFang TC',sans-serif" font-size="5.4" fill="#8a8a8a" font-weight="normal" text-anchor="start">產品名稱</text><rect x="64" y="20" width="50" height="32" rx="0" fill="#dcdcdc"/><circle cx="80.0" cy="31.5" r="2.6" fill="#c9c9c9"/><path d="M70.0 46.2 L81.0 35.4 L89.0 41.8 L98.0 32.2 L109.0 46.2 Z" fill="#c9c9c9"/><text x="64" y="56" font-family="'Noto Sans TC','Microsoft JhengHei','PingFang TC',sans-serif" font-size="5.4" fill="#8a8a8a" font-weight="normal" text-anchor="start">產品名稱</text><rect x="10" y="58" width="50" height="32" rx="0" fill="#dcdcdc"/><circle cx="26.0" cy="69.5" r="2.6" fill="#c9c9c9"/><path d="M16.0 84.2 L27.0 73.4 L35.0 79.8 L44.0 70.2 L55.0 84.2 Z" fill="#c9c9c9"/><text x="10" y="94" font-family="'Noto Sans TC','Microsoft JhengHei','PingFang TC',sans-serif" font-size="5.4" fill="#8a8a8a" font-weight="normal" text-anchor="start">產品名稱</text><rect x="64" y="58" width="50" height="32" rx="0" fill="#dcdcdc"/><circle cx="80.0" cy="69.5" r="2.6" fill="#c9c9c9"/><path d="M70.0 84.2 L81.0 73.4 L89.0 79.8 L98.0 70.2 L109.0 84.2 Z" fill="#c9c9c9"/><text x="64" y="94" font-family="'Noto Sans TC','Microsoft JhengHei','PingFang TC',sans-serif" font-size="5.4" fill="#8a8a8a" font-weight="normal" text-anchor="start">產品名稱</text>
</svg>
