<svg xmlns="http://www.w3.org/2000/svg" width="20" height="20" viewBox="0 0 20 20" fill="none">
  <path d="M10.001 2.92499L7.926 4.99999H5.001V7.92499L2.926 9.99999L5.001 12.075V15H7.926L10.001 17.075L12.501 14.575L16.701 16.7L14.551 12.525L17.076 9.99999L15.001 7.92499V4.99999H12.076L10.001 2.92499ZM10.001 0.811493L12.6925 3.50324H16.4977V7.30849L19.1895 9.99999L16.3855 12.8037L18.8662 17.6652C18.9701 17.8627 19.0002 18.0528 18.9567 18.2355C18.9131 18.4182 18.8278 18.573 18.701 18.7C18.574 18.8268 18.4192 18.9121 18.2365 18.9557C18.0538 18.9992 17.8638 18.9691 17.6663 18.8652L12.8048 16.3845L10.001 19.1885L7.3095 16.4967H3.50425V12.6915L0.8125 9.99999L3.50425 7.30849V3.50324H7.3095L10.001 0.811493Z" fill="#666666"/>
</svg>