<svg xmlns="http://www.w3.org/2000/svg" width="20" height="18" viewBox="0 0 20 18" fill="none">
  <path d="M10 17.5884L8.89625 16.5961C7.23858 15.0923 5.86775 13.8 4.78375 12.7194C3.69975 11.6385 2.84075 10.6766 2.20675 9.83362C1.57275 8.99079 1.12983 8.22187 0.878 7.52687C0.626 6.83204 0.5 6.12695 0.5 5.41162C0.5 3.99245 0.9785 2.80429 1.9355 1.84712C2.89267 0.890121 4.08083 0.411621 5.5 0.411621C6.373 0.411621 7.198 0.615788 7.975 1.02412C8.752 1.43245 9.427 2.01804 10 2.78087C10.573 2.01804 11.248 1.43245 12.025 1.02412C12.802 0.615788 13.627 0.411621 14.5 0.411621C15.9192 0.411621 17.1073 0.890121 18.0645 1.84712C19.0215 2.80429 19.5 3.99245 19.5 5.41162C19.5 6.12695 19.374 6.83204 19.122 7.52687C18.8702 8.22187 18.4272 8.99079 17.7932 9.83362C17.1592 10.6766 16.3018 11.6385 15.221 12.7194C14.1403 13.8 12.7679 15.0923 11.1038 16.5961L10 17.5884ZM10 15.5616C11.6 14.122 12.9167 12.888 13.95 11.8596C14.9833 10.8315 15.8 9.9382 16.4 9.17987C17 8.42154 17.4167 7.74812 17.65 7.15962C17.8833 6.57129 18 5.98862 18 5.41162C18 4.41162 17.6667 3.57829 17 2.91162C16.3333 2.24495 15.5 1.91162 14.5 1.91162C13.7103 1.91162 12.9805 2.13562 12.3105 2.58362C11.6407 3.03179 11.1102 3.6552 10.7192 4.45387H9.28075C8.88325 3.6487 8.35117 3.0237 7.6845 2.57887C7.01783 2.13404 6.28967 1.91162 5.5 1.91162C4.50633 1.91162 3.67458 2.24495 3.00475 2.91162C2.33492 3.57829 2 4.41162 2 5.41162C2 5.98862 2.11667 6.57129 2.35 7.15962C2.58333 7.74812 3 8.42154 3.6 9.17987C4.2 9.9382 5.01667 10.8299 6.05 11.8549C7.08333 12.8799 8.4 14.1155 10 15.5616Z" fill="#666666"/>
</svg>