<svg xmlns="http://www.w3.org/2000/svg" width="20" height="18" viewBox="0 0 20 18" fill="none">
  <path d="M10 17.3271L8.89625 16.3349C7.23858 14.8311 5.86775 13.5388 4.78375 12.4581C3.69975 11.3773 2.84075 10.4154 2.20675 9.57239C1.57275 8.72956 1.12983 7.96064 0.878 7.26564C0.626 6.57081 0.5 5.86572 0.5 5.15039C0.5 3.73122 0.9785 2.54306 1.9355 1.58589C2.89267 0.62889 4.08083 0.150391 5.5 0.150391C6.373 0.150391 7.198 0.354557 7.975 0.762891C8.752 1.17122 9.427 1.75681 10 2.51964C10.573 1.75681 11.248 1.17122 12.025 0.762891C12.802 0.354557 13.627 0.150391 14.5 0.150391C15.9192 0.150391 17.1073 0.62889 18.0645 1.58589C19.0215 2.54306 19.5 3.73122 19.5 5.15039C19.5 5.86572 19.374 6.57081 19.122 7.26564C18.8702 7.96064 18.4272 8.72956 17.7932 9.57239C17.1592 10.4154 16.3018 11.3773 15.221 12.4581C14.1403 13.5388 12.7679 14.8311 11.1038 16.3349L10 17.3271Z" fill="#E5001B"/>
</svg>