<svg xmlns="http://www.w3.org/2000/svg" width="16" height="4" viewBox="0 0 16 4" fill="none">
  <path d="M2.23047 3.5C1.81797 3.5 1.46489 3.35308 1.17122 3.05925C0.877386 2.76558 0.730469 2.4125 0.730469 2C0.730469 1.5875 0.877386 1.23442 1.17122 0.94075C1.46489 0.646917 1.81797 0.5 2.23047 0.5C2.64297 0.5 2.99614 0.646917 3.28997 0.94075C3.58364 1.23442 3.73047 1.5875 3.73047 2C3.73047 2.4125 3.58364 2.76558 3.28997 3.05925C2.99614 3.35308 2.64297 3.5 2.23047 3.5ZM7.99972 3.5C7.58722 3.5 7.23414 3.35308 6.94047 3.05925C6.64664 2.76558 6.49972 2.4125 6.49972 2C6.49972 1.5875 6.64664 1.23442 6.94047 0.94075C7.23414 0.646917 7.58722 0.5 7.99972 0.5C8.41222 0.5 8.7653 0.646917 9.05897 0.94075C9.3528 1.23442 9.49972 1.5875 9.49972 2C9.49972 2.4125 9.3528 2.76558 9.05897 3.05925C8.7653 3.35308 8.41222 3.5 7.99972 3.5ZM13.769 3.5C13.3565 3.5 13.0033 3.35308 12.7095 3.05925C12.4158 2.76558 12.269 2.4125 12.269 2C12.269 1.5875 12.4158 1.23442 12.7095 0.94075C13.0033 0.646917 13.3565 0.5 13.769 0.5C14.1815 0.5 14.5346 0.646917 14.8282 0.94075C15.1221 1.23442 15.269 1.5875 15.269 2C15.269 2.4125 15.1221 2.76558 14.8282 3.05925C14.5346 3.35308 14.1815 3.5 13.769 3.5Z" fill="#666666"/>
</svg>