<svg xmlns="http://www.w3.org/2000/svg" width="18" height="20" viewBox="0 0 18 20" fill="none">
  <path d="M16.9462 19.8461L14.2653 17.1749C13.9307 17.3787 13.577 17.5415 13.204 17.6634C12.831 17.7852 12.4425 17.8461 12.0385 17.8461C10.9423 17.8461 10.008 17.4599 9.2355 16.6874C8.46317 15.915 8.077 14.9808 8.077 13.8846C8.077 12.7885 8.46317 11.8541 9.2355 11.0816C10.008 10.3093 10.9423 9.92312 12.0385 9.92312C13.1347 9.92312 14.0689 10.3093 14.8413 11.0816C15.6138 11.8541 16 12.7885 16 13.8846C16 14.286 15.9423 14.6754 15.827 15.0529C15.7115 15.4304 15.5423 15.7832 15.3193 16.1114L18 18.7924L16.9462 19.8461ZM12.0363 16.3461C12.7249 16.3461 13.3077 16.1084 13.7845 15.6329C14.2615 15.1574 14.5 14.5754 14.5 13.8869C14.5 13.1982 14.2622 12.6154 13.7867 12.1384C13.3112 11.6615 12.7293 11.4231 12.0408 11.4231C11.3521 11.4231 10.7693 11.6609 10.2923 12.1364C9.81542 12.6117 9.577 13.1937 9.577 13.8824C9.577 14.571 9.81475 15.1538 10.2902 15.6306C10.7656 16.1076 11.3476 16.3461 12.0363 16.3461ZM17 8.69237H15.5V3.65387C15.5 3.57687 15.4679 3.50637 15.4038 3.44237C15.3398 3.3782 15.2692 3.34612 15.1923 3.34612H13V5.96137H4V3.34612H1.80775C1.73075 3.34612 1.66025 3.3782 1.59625 3.44237C1.53208 3.50637 1.5 3.57687 1.5 3.65387V17.0384C1.5 17.1154 1.53208 17.1859 1.59625 17.2499C1.66025 17.314 1.73075 17.3461 1.80775 17.3461H6.75V18.8461H1.80775C1.31058 18.8461 0.885 18.6691 0.531 18.3151C0.177 17.9611 0 17.5355 0 17.0384V3.65387C0 3.1567 0.177 2.73112 0.531 2.37712C0.885 2.02312 1.31058 1.84612 1.80775 1.84612H6.2135C6.352 1.35895 6.635 0.955119 7.0625 0.634619C7.49 0.314119 7.96917 0.15387 8.5 0.15387C9.05133 0.15387 9.53817 0.314119 9.9605 0.634619C10.383 0.955119 10.6635 1.35895 10.802 1.84612H15.1923C15.6894 1.84612 16.115 2.02312 16.469 2.37712C16.823 2.73112 17 3.1567 17 3.65387V8.69237ZM8.50175 3.46162C8.75825 3.46162 8.97275 3.37479 9.14525 3.20112C9.31758 3.02762 9.40375 2.81254 9.40375 2.55587C9.40375 2.29937 9.317 2.08487 9.1435 1.91237C8.97 1.74004 8.75492 1.65387 8.49825 1.65387C8.24175 1.65387 8.02725 1.74062 7.85475 1.91412C7.68242 2.08779 7.59625 2.30287 7.59625 2.55937C7.59625 2.81587 7.683 3.03037 7.8565 3.20287C8.03 3.37537 8.24508 3.46162 8.50175 3.46162Z" fill="#666666"/>
</svg>