<?xml version="1.0" encoding="UTF-8"?>
<svg id="_圖層_1" data-name="圖層_1" xmlns="http://www.w3.org/2000/svg" xmlns:xlink="http://www.w3.org/1999/xlink" version="1.1" viewBox="0 0 24 24">
  <!-- Generator: Adobe Illustrator 29.8.1, SVG Export Plug-In . SVG Version: 2.1.1 Build 2)  -->
  <defs>
    <style>
      .st0 {
        mask: url(#mask);
      }

      .st1 {
        fill: #d9d9d9;
      }

      .st2 {
        fill: #848484;
      }

      .st3 {
        fill: #666;
      }
    </style>
    <mask id="mask" x="-1.4" y="0" width="24" height="24" maskUnits="userSpaceOnUse">
      <g id="mask0_8309_970">
        <rect class="st1" x="-1.4" y="0" width="24" height="24"/>
      </g>
    </mask>
  </defs>
  <polygon class="st2" points="17 13.5 17 11.1 14.7 11.1 14.7 9.5 17 9.5 17 7.2 18.6 7.2 18.6 9.5 20.9 9.5 20.9 11.1 18.6 11.1 18.6 13.5 17 13.5"/>
  <g class="st0">
    <path class="st3" d="M10.6,11.7c-1,0-1.8-.3-2.5-1-.7-.7-1-1.5-1-2.5s.3-1.8,1-2.5c.7-.7,1.5-1,2.5-1s1.8.3,2.5,1c.7.7,1,1.5,1,2.5s-.3,1.8-1,2.5c-.7.7-1.5,1-2.5,1ZM3.1,19.3v-2.2c0-.5.1-.9.4-1.4.3-.4.6-.7,1.1-1,1-.5,2-.8,3-1.1,1-.2,2-.4,3-.4s2,.1,3,.4c1,.2,2,.6,3,1.1.4.2.8.5,1.1,1s.4.9.4,1.4v2.2H3.1ZM4.6,17.8h12v-.7c0-.2,0-.4-.2-.6-.1-.2-.3-.3-.5-.4-.9-.4-1.7-.7-2.6-1-.9-.2-1.8-.3-2.7-.3s-1.8.1-2.7.3c-.9.2-1.8.5-2.6,1-.2.1-.4.2-.5.4-.1.2-.2.4-.2.6v.7ZM10.6,10.2c.6,0,1-.2,1.4-.6.4-.4.6-.9.6-1.4s-.2-1-.6-1.4c-.4-.4-.9-.6-1.4-.6s-1,.2-1.4.6c-.4.4-.6.9-.6,1.4s.2,1,.6,1.4c.4.4.9.6,1.4.6Z"/>
  </g>
</svg>