<svg xmlns="http://www.w3.org/2000/svg" width="18" height="18" viewBox="0 0 18 18" fill="none">
  <path d="M16.5425 17.577L10.2618 11.296C9.7618 11.7088 9.1868 12.0319 8.5368 12.2652C7.8868 12.4986 7.21438 12.6152 6.51955 12.6152C4.81038 12.6152 3.36388 12.0235 2.18005 10.84C0.996214 9.65649 0.404297 8.21032 0.404297 6.50149C0.404297 4.79282 0.996047 3.34615 2.17955 2.16149C3.36305 0.976985 4.80921 0.384735 6.51805 0.384735C8.22671 0.384735 9.67338 0.976651 10.858 2.16048C12.0425 3.34432 12.6348 4.79082 12.6348 6.49999C12.6348 7.21415 12.515 7.89624 12.2753 8.54624C12.0355 9.19624 11.7155 9.76157 11.3155 10.2422L17.5963 16.523L16.5425 17.577ZM6.51955 11.1155C7.80805 11.1155 8.89938 10.6683 9.79355 9.77398C10.6879 8.87982 11.135 7.78849 11.135 6.49999C11.135 5.21148 10.6879 4.12015 9.79355 3.22598C8.89938 2.33165 7.80805 1.88449 6.51955 1.88449C5.23105 1.88449 4.13971 2.33165 3.24555 3.22598C2.35121 4.12015 1.90405 5.21148 1.90405 6.49999C1.90405 7.78849 2.35121 8.87982 3.24555 9.77398C4.13971 10.6683 5.23105 11.1155 6.51955 11.1155Z" fill="#1C1B1F"/>
</svg>