<svg xmlns="http://www.w3.org/2000/svg" width="24" height="24" viewBox="0 0 24 24" fill="none">
  <mask id="mask0_8307_5548" style="mask-type:alpha" maskUnits="userSpaceOnUse" x="0" y="0" width="24" height="24">
    <rect width="24" height="24" fill="#D9D9D9"/>
  </mask>
  <g mask="url(#mask0_8307_5548)">
    <path d="M12 20.4998C10.8205 20.4998 9.71542 20.2767 8.68475 19.8305C7.65392 19.3844 6.75517 18.7779 5.9885 18.0113C5.22183 17.2446 4.61542 16.3459 4.16925 15.315C3.72308 14.2844 3.5 13.1793 3.5 11.9998C3.5 10.8203 3.72308 9.71519 4.16925 8.68452C4.61542 7.65369 5.22183 6.75494 5.9885 5.98827C6.75517 5.2216 7.65392 4.61519 8.68475 4.16902C9.71542 3.72285 10.8205 3.49977 12 3.49977V4.99977C10.05 4.99977 8.39583 5.67894 7.0375 7.03727C5.67917 8.3956 5 10.0498 5 11.9998C5 13.9498 5.67917 15.6039 7.0375 16.9623C8.39583 18.3206 10.05 18.9998 12 18.9998V20.4998ZM16 16.644L14.9462 15.5748L17.7807 12.7498H9.25V11.2498H17.7712L14.9462 8.39977L16 7.35552L20.6443 11.9998L16 16.644Z" fill="#E5001B"/>
  </g>
</svg>