<svg xmlns="http://www.w3.org/2000/svg" width="20" height="20" viewBox="0 0 20 20" fill="none">
  <path d="M4.99875 11.25C5.34575 11.25 5.641 11.1286 5.8845 10.8857C6.12817 10.6429 6.25 10.3481 6.25 10.0013C6.25 9.65425 6.12858 9.359 5.88575 9.1155C5.64292 8.87183 5.34808 8.75 5.00125 8.75C4.65425 8.75 4.359 8.87142 4.1155 9.11425C3.87183 9.35708 3.75 9.65192 3.75 9.99875C3.75 10.3458 3.87142 10.641 4.11425 10.8845C4.35708 11.1282 4.65192 11.25 4.99875 11.25ZM9.99875 11.25C10.3458 11.25 10.641 11.1286 10.8845 10.8857C11.1282 10.6429 11.25 10.3481 11.25 10.0013C11.25 9.65425 11.1286 9.359 10.8857 9.1155C10.6429 8.87183 10.3481 8.75 10.0013 8.75C9.65425 8.75 9.359 8.87142 9.1155 9.11425C8.87183 9.35708 8.75 9.65192 8.75 9.99875C8.75 10.3458 8.87142 10.641 9.11425 10.8845C9.35708 11.1282 9.65192 11.25 9.99875 11.25ZM14.9988 11.25C15.3458 11.25 15.641 11.1286 15.8845 10.8857C16.1282 10.6429 16.25 10.3481 16.25 10.0013C16.25 9.65425 16.1286 9.359 15.8857 9.1155C15.6429 8.87183 15.3481 8.75 15.0013 8.75C14.6543 8.75 14.359 8.87142 14.1155 9.11425C13.8718 9.35708 13.75 9.65192 13.75 9.99875C13.75 10.3458 13.8714 10.641 14.1143 10.8845C14.3571 11.1282 14.6519 11.25 14.9988 11.25ZM10.0017 19.5C8.68775 19.5 7.45267 19.2507 6.2965 18.752C5.14033 18.2533 4.13467 17.5766 3.2795 16.7218C2.42433 15.8669 1.74725 14.8617 1.24825 13.706C0.749417 12.5503 0.5 11.3156 0.5 10.0017C0.5 8.68775 0.749333 7.45267 1.248 6.2965C1.74667 5.14033 2.42342 4.13467 3.27825 3.2795C4.13308 2.42433 5.13833 1.74725 6.294 1.24825C7.44967 0.749417 8.68442 0.5 9.99825 0.5C11.3123 0.5 12.5473 0.749333 13.7035 1.248C14.8597 1.74667 15.8653 2.42342 16.7205 3.27825C17.5757 4.13308 18.2528 5.13833 18.7518 6.294C19.2506 7.44967 19.5 8.68442 19.5 9.99825C19.5 11.3123 19.2507 12.5473 18.752 13.7035C18.2533 14.8597 17.5766 15.8653 16.7218 16.7205C15.8669 17.5757 14.8617 18.2528 13.706 18.7518C12.5503 19.2506 11.3156 19.5 10.0017 19.5ZM10 18C12.2333 18 14.125 17.225 15.675 15.675C17.225 14.125 18 12.2333 18 10C18 7.76667 17.225 5.875 15.675 4.325C14.125 2.775 12.2333 2 10 2C7.76667 2 5.875 2.775 4.325 4.325C2.775 5.875 2 7.76667 2 10C2 12.2333 2.775 14.125 4.325 15.675C5.875 17.225 7.76667 18 10 18Z" fill="#666666"/>
</svg>