<svg id="_圖層_1" data-name="圖層_1" xmlns="http://www.w3.org/2000/svg" xmlns:xlink="http://www.w3.org/1999/xlink" version="1.1" viewBox="0 0 888.3 529.8">
  <defs>
    <style>
      .st0 {
        fill: url(#_未命名漸層_19);
      }

      .st1 {
        fill: url(#_未命名漸層_13);
      }

      .st2 {
        fill: url(#_未命名漸層_1833);
      }

      .st3 {
        fill: url(#_未命名漸層_1831);
      }

      .st4 {
        fill: url(#_未命名漸層_1832);
      }

      .st5 {
        fill: url(#_未命名漸層_1836);
      }

      .st6 {
        fill: url(#_未命名漸層_1837);
      }

      .st7 {
        fill: url(#_未命名漸層_1834);
      }

      .st8 {
        fill: url(#_未命名漸層_1835);
      }

      .st9 {
        fill: url(#_未命名漸層_1838);
      }

      .st10 {
        fill: url(#_未命名漸層_1839);
      }

      .st11 {
        fill: #231815;
      }

      .st12 {
        fill: url(#_未命名漸層_183);
      }

      .st13 {
        fill: url(#_未命名漸層_132);
      }

      .st14 {
        fill: url(#_未命名漸層_133);
      }

      .st15 {
        fill: url(#_未命名漸層_134);
      }

      .st16 {
        fill: url(#_未命名漸層_131);
      }

      .st17 {
        fill: url(#_未命名漸層_18313);
      }

      .st18 {
        fill: url(#_未命名漸層_18314);
      }

      .st19 {
        fill: url(#_未命名漸層_18312);
      }

      .st20 {
        fill: url(#_未命名漸層_18311);
      }

      .st21 {
        fill: url(#_未命名漸層_18310);
      }
    </style>
    <linearGradient id="_未命名漸層_183" data-name="未命名漸層 183" x1="904.3" y1="389.4" x2="-107.8" y2="490.6" gradientUnits="userSpaceOnUse">
      <stop offset="0" stop-color="#1579ff"/>
      <stop offset="1" stop-color="#ce41d5"/>
    </linearGradient>
    <linearGradient id="_未命名漸層_1831" data-name="未命名漸層 183" x1="908.2" y1="428.5" x2="-103.9" y2="529.7" xlink:href="#_未命名漸層_183"/>
    <linearGradient id="_未命名漸層_1832" data-name="未命名漸層 183" x1="910.3" y1="449.4" x2="-101.8" y2="550.6" xlink:href="#_未命名漸層_183"/>
    <linearGradient id="_未命名漸層_1833" data-name="未命名漸層 183" x1="906.3" y1="409.3" x2="-105.8" y2="510.5" xlink:href="#_未命名漸層_183"/>
    <linearGradient id="_未命名漸層_1834" data-name="未命名漸層 183" x1="905.5" y1="401.3" x2="-106.6" y2="502.5" xlink:href="#_未命名漸層_183"/>
    <linearGradient id="_未命名漸層_1835" data-name="未命名漸層 183" x1="904.3" x2="-107.8" y2="490.6" xlink:href="#_未命名漸層_183"/>
    <linearGradient id="_未命名漸層_1836" data-name="未命名漸層 183" x1="908.2" y1="428.5" x2="-103.9" y2="529.7" xlink:href="#_未命名漸層_183"/>
    <linearGradient id="_未命名漸層_1837" data-name="未命名漸層 183" x1="910.3" y1="449.4" x2="-101.8" y2="550.6" xlink:href="#_未命名漸層_183"/>
    <linearGradient id="_未命名漸層_1838" data-name="未命名漸層 183" x1="906.3" y1="409.3" x2="-105.8" y2="510.5" xlink:href="#_未命名漸層_183"/>
    <linearGradient id="_未命名漸層_1839" data-name="未命名漸層 183" x1="905.5" y1="401.3" x2="-106.6" y2="502.5" xlink:href="#_未命名漸層_183"/>
    <linearGradient id="_未命名漸層_18310" data-name="未命名漸層 183" x1="905.7" y1="403.3" x2="-106.4" y2="504.5" xlink:href="#_未命名漸層_183"/>
    <linearGradient id="_未命名漸層_18311" data-name="未命名漸層 183" x1="904" y1="386.9" x2="-108.1" y2="488.2" xlink:href="#_未命名漸層_183"/>
    <linearGradient id="_未命名漸層_18312" data-name="未命名漸層 183" x1="912.3" y1="470" x2="-99.8" y2="571.2" xlink:href="#_未命名漸層_183"/>
    <linearGradient id="_未命名漸層_18313" data-name="未命名漸層 183" x1="904.8" y1="394.8" x2="-107.3" y2="496" xlink:href="#_未命名漸層_183"/>
    <linearGradient id="_未命名漸層_18314" data-name="未命名漸層 183" x1="906.1" y1="407.9" x2="-106" y2="509.1" xlink:href="#_未命名漸層_183"/>
    <linearGradient id="_未命名漸層_13" data-name="未命名漸層 13" x1="247.5" y1="56.1" x2="134.2" y2="128.4" gradientUnits="userSpaceOnUse">
      <stop offset="0" stop-color="#1579ff"/>
      <stop offset=".7" stop-color="#ce41d5"/>
      <stop offset="1" stop-color="#ce41d5"/>
    </linearGradient>
    <linearGradient id="_未命名漸層_19" data-name="未命名漸層 19" x1="979.8" y1="209.8" x2="314.7" y2="176.1" gradientUnits="userSpaceOnUse">
      <stop offset="0" stop-color="#1579ff"/>
      <stop offset=".7" stop-color="#ce41d5"/>
      <stop offset="1" stop-color="#ffb1d5"/>
    </linearGradient>
    <linearGradient id="_未命名漸層_131" data-name="未命名漸層 13" x1="979.5" y1="216.9" x2="314.4" y2="183.2" xlink:href="#_未命名漸層_13"/>
    <linearGradient id="_未命名漸層_132" data-name="未命名漸層 13" x1="979.4" y1="218.1" x2="314.3" y2="184.3" xlink:href="#_未命名漸層_13"/>
    <linearGradient id="_未命名漸層_133" data-name="未命名漸層 13" x1="980.9" y1="188.9" x2="315.8" y2="155.1" xlink:href="#_未命名漸層_13"/>
    <linearGradient id="_未命名漸層_134" data-name="未命名漸層 13" x1="980.1" y1="204.7" x2="315" y2="170.9" xlink:href="#_未命名漸層_13"/>
  </defs>
  <g>
    <path class="st12" d="M121.9,481.9h-20.7c-1.1,0-1.8-3.2-2.1-3.9-5.8-11.3-22.5-10.5-27.1,1.1s12,28.7,24.2,17.8c2.4-2.1,2.7-4.6,4.7-6.7,8.7-.3,17.5-.9,26.2,0,1.1.5,4,7.6,4.8,9.2,2.5,4.8,5.4,9.4,8,14.1,2,3.6,4.2,9.3,6.4,12.5,1.1,1.6,3.2,3.1,5.1,3.4,6.8,1,16.1-.7,23.2,0,3.5-.4,4.2-3.3,3.1-6.3-1.8-4.9-6.8-12.3-9.4-17.3-1.7-3.2-3.2-6.5-4.9-9.7-.2-.4-4.2-6.3-2.3-6.3h27.1c4.7,4.1,9.8,8,13.3,13.1l-.5.9h-5.3c-1.1,0-3.1,2.2-3.3,3.5-.6,3.3,0,8.8,0,12.4,0,1.5-.5,2.9-.4,4.6.2,2.7,1.9,4.4,4.5,5.1h101.3c15.5-1.1,28.8-6.5,32.9-22.7s2.5-28,0-36.8c-5-16.9-19.8-21.1-35.7-21.8-20-.8-41.1,1.2-61,0-6.1-.4-11.6-2.4-12.6-9.2s-.5-8.3,0-11.3c.7-5.3,4.2-7.8,9.1-9.1h78.1c9.1,7.8,17.5,16.9,26.7,24.7.8.4,1.6.6,2.5.7,9.3.8,19.8-.7,29.2,0,2,.3,1.5,1.4,2.2,2.4,8.7,12.1,27.5,1,19.8-13.1-3.3-6.1-11.9-7.4-17.2-3.1-2.1,1.8-2.8,3.9-4.6,5.7l-28,.2-2-.9-16.4-16c-.3-1.2,2.2-.8,3-1,2.5-.6,3.5-2.8,3.8-5.1s0-5.3,0-7.4c0-4.1,1.2-11.5-3.9-12.5-31.3.7-63.5-1.5-94.7-.2-14.1.6-28,4-33.9,18.2-3.6,8.8-3.5,33.2,0,42.1,5.5,13.8,17.8,18,31.7,18.6,20.1.8,41.1-1.1,61,0,6.1.3,13.1,1.3,15,8.1.8,2.7.8,13.9,0,16.6-1.5,4.8-6.8,7-11.5,7.4h-76.7c-6.7-5.1-12.2-11.7-18.4-17.3s-4.1-4.3-6.9-4.5c-10.1-.9-21.7,1-31.8,0-3.5-.3-4-4.4-5.4-7-9-16.2-17.9-32.6-26.7-48.9-4.5-8.3-11.5-25.5-19.2-30.4-6-3.8-18.2-3.8-25.3-3.2s-13.1,5.2-17.4,12.5c-4.7,8-8.8,17-13.3,25.2-16.6,30.9-33,61.9-49.4,92.9-1.5,3.2-.7,5.9,3.1,6.3,5.2.5,17.7.5,22.9,0,1.2-.1,3.3-.8,4.1-1.6,17.7-33.7,35.4-67.4,52.7-101.3,1.1-2.1,3.3-9.2,6.7-7.3,1.9,1.1,6.1,11.4,7.4,14,3.5,6.8,6.9,13.4,10.5,20.2,4.2,8,9.8,16.7,13.4,24.8.3.8,1.7,3.4.5,3.8Z"/>
    <path class="st3" d="M625.4,480.2c.5-.5,2.3-.4,3.1-.7,24.2-8.3,25.7-34.1,22.2-56-4.5-27.8-23.4-30.7-48-30.8-29.6-.1-59.5,0-89.2,0-2.9.6-4.5.8-4.8,4.1-.4,3.8-.5,13.4,0,17.1s3.3,4.5,6.2,4.5h92.4c10.4,1.9,14.8,5.7,15.6,16.6.9,13.2-1.3,24.5-16.6,25.5h-92.8c-7.4.5-4.8,9.1-5.9,14.1.9,15.4-1.2,32.2,0,47.5.3,3.4,1.3,6.8,5.2,7.3,2.9.4,18.5.4,20.8-.3,2.4-.7,3.4-2.9,3.7-5.2,1.3-11.7-1.1-25.6,0-37.5s1.1-2.5,3.4-2.7c14.5-1.2,30.7,1,45.3,0,2.3.9,6.4-.5,8.2,1.1,3.1,2.8,5.7,8,8.1,11.5,5,7.1,9.9,13.9,14.9,20.8,3,4.1,6.3,11.5,11.9,12.2l25.5-.2c3.5-1.7,3.2-3.5,1.4-6.4-7.8-12.5-19.3-24.8-27.9-37-.5-.7-2.7-3.8-2.9-4.2s0-1.2.2-1.4Z"/>
    <path class="st4" d="M804.2,447.1c-3.7-6.9-8.2-14.4-12.1-21.6-4.3-7.9-11.6-25.5-18.9-30-6.8-4.2-28.1-4.6-34.7-.2-6,4-10.9,15.9-14.4,22.3-16.8,31-33.5,61.9-49.9,93.1-2.1,3.9-5.2,8.4-6.8,12.5-1.3,3.3.1,5.7,3.6,6.2,7,.9,15.7-.7,22.8,0,3.4-.5,4.9-3.5,6.4-6.1,4-7,7.1-14.7,11.3-21.8s.7-2.6,2.3-3.1c.7-.2,1.3.3,2,.3,9-.6,20.6-.9,29.7-.3,5.3.3,9.8,3.1,15,2.5,4.4-.5,8.6-2.6,11.2-6.3,10.7-14.7-9.2-33-23-20.8-1.3,1.1-2.7,4-4.3,4.2-5.6.8-12.8-.5-18.5,0l-1.2-.6c-.5-1.5.7-1.8,1.1-2.7,5-11.3,11.4-22.2,17.1-33.2,3.4-6.6,6.3-13.6,10.1-19.9.7-1.2,1.2-3,2.9-3.2,2.3,0,3.5,4.4,4.3,6.1,15,29.5,31,59.5,46.8,88.7,2.2,4,4.8,11.1,7.8,14.3.7.8,2.8,1.7,3.9,1.8l24.1-.2c3.2-2,3-3.4,1.7-6.7-13.9-24.9-26.8-50.3-40.3-75.4Z"/>
    <path class="st2" d="M491.4,394.3c-.5-.5-3.5-1.5-4.3-1.5l-140,.2c-1.8.8-3.4,2.2-3.6,4.3-.3,3.1-.5,14.3,0,17.1s1.8,3.3,3,3.8l54.3.3c2,.3,2.8,1.8,2.7,3.7v101.7c.1,3,2.6,5.2,5.5,5.5,3.8.5,15.5.5,19.3,0s4.2-3,4.5-6.2c1.8-26.2-1.4-54.5,0-81-.2-6.1-1-13.5-.4-19.6s.9-3.9,2.7-4.1c16.9-.8,35,1.2,51.7,0,4-.3,5.5-1.5,5.9-5.6s.4-11.2,0-15c0-.8-.6-3.1-1.2-3.7Z"/>
    <path class="st7" d="M455.4,427.8c-7.8,1-11.4,11.1-7.8,17.6,4,7.3,14.5,8,19.7,1.7.9-1.1,1.4-3.3,3-3.4h106.3c2.2.2,2.7,2.8,4.3,4.3,4.1,3.9,10.3,4.5,15,1.5,6.4-4,7.1-13.1,1.9-18.4-5.2-5.4-14.5-4.5-18.5,1.8-1,1.6-.2,2.6-2.8,2.9h-106.2c-2.4-1.2-3.1-4.1-5.2-5.9-2.6-2.3-6.4-2.7-9.7-2.2Z"/>
    <path class="st8" d="M121.9,481.9c1.2-.4-.1-3-.5-3.8-3.6-8.1-9.2-16.8-13.4-24.8-3.5-6.8-7-13.4-10.5-20.2-1.3-2.6-5.5-12.9-7.4-14-3.4-1.9-5.6,5.2-6.7,7.3-17.3,33.9-35,67.6-52.7,101.3-.8.8-2.9,1.5-4.1,1.6-5.1.6-17.7.5-22.9,0-3.7-.4-4.6-3.1-3.1-6.3,16.4-31,32.9-62,49.4-92.9,4.4-8.2,8.5-17.2,13.3-25.2,4.3-7.3,8.4-11.8,17.4-12.5s19.3-.6,25.3,3.2c7.7,4.9,14.7,22.1,19.2,30.4,8.9,16.3,17.7,32.6,26.7,48.9,1.5,2.6,1.9,6.7,5.4,7,10.1.9,21.6-.9,31.8,0,2.8.2,4.9,2.7,6.9,4.5,6.2,5.6,11.7,12.2,18.4,17.2h76.7c4.6-.4,10-2.6,11.5-7.4.8-2.6.8-13.8,0-16.6-1.9-6.8-8.9-7.8-15-8.1-20-1.1-40.9.8-61,0-13.9-.5-26.3-4.8-31.7-18.6-3.5-8.9-3.6-33.3,0-42.1,5.9-14.2,19.8-17.6,33.9-18.2,31.2-1.3,63.4.9,94.7.2,5.2,1,3.9,8.4,3.9,12.5s.2,5.5,0,7.4-1.3,4.6-3.8,5.1c-.7.2-3.2-.3-3,1l16.4,16,2,.9,28-.2c1.9-1.9,2.5-4,4.6-5.7,5.3-4.3,13.9-2.9,17.2,3.1,7.7,14-11.2,25.2-19.8,13.1-.7-1-.2-2.1-2.2-2.4-9.4-.7-19.9.8-29.2,0-.9,0-1.7-.2-2.5-.7-9.2-7.7-17.6-16.8-26.7-24.7h-78.1c-4.9,1.4-8.4,3.8-9.1,9.1-.4,3-.3,8.3,0,11.3.9,6.8,6.4,8.8,12.6,9.2,19.9,1.2,41-.9,61,0,15.9.7,30.7,4.9,35.7,21.8,2.6,8.8,2.4,27.9,0,36.8-4.1,16.2-17.4,21.7-32.9,22.7h-101.3c-2.6-.7-4.3-2.4-4.5-5.2s.4-3.1.4-4.6c0-3.6-.5-9.1,0-12.4.2-1.2,2.2-3.5,3.3-3.5h5.3l.5-.9c-3.6-5.1-8.7-9-13.3-13.1h-27.1c-1.9,0,2.1,5.9,2.3,6.3,1.7,3.2,3.2,6.5,4.9,9.7,2.6,5,7.6,12.4,9.4,17.3,1.1,3,.4,5.9-3.1,6.3-7.1-.8-16.3,1-23.2,0-1.9-.3-4-1.8-5.1-3.4-2.2-3.2-4.4-8.8-6.4-12.5-2.6-4.7-5.4-9.4-8-14.1-.8-1.6-3.7-8.6-4.8-9.2-8.7-.8-17.5-.3-26.2,0-2,2-2.3,4.6-4.7,6.7-12.2,10.9-30.4-2.5-24.2-17.8s21.3-12.3,27.1-1.1c.4.7,1,3.9,2.1,3.9h20.7ZM382.6,437.1c-2-3-7.3-2.6-8,1.2-1.2,6.8,7.4,6.9,8.4,2.7.2-1.1.2-3-.4-3.9ZM92.4,485.3c0-3.7-3-6.8-6.8-6.8s-6.8,3-6.8,6.8,3,6.8,6.8,6.8,6.8-3,6.8-6.8Z"/>
    <path class="st5" d="M625.4,480.2c-.2.2-.4,1.1-.2,1.4.2.4,2.4,3.6,2.9,4.2,8.7,12.2,20.1,24.5,27.9,37,1.8,2.9,2.2,4.7-1.4,6.4l-25.5.2c-5.6-.7-8.9-8.1-11.9-12.2-5-6.9-10-13.7-14.9-20.8s-5-8.7-8.1-11.5c-1.7-1.6-5.9-.2-8.2-1.1-14.7,1-30.9-1.2-45.3,0-2.3.2-3.2.2-3.4,2.7-1.1,11.8,1.3,25.8,0,37.5-.3,2.4-1.3,4.5-3.7,5.2-2.3.7-17.9.6-20.8.3-3.9-.5-4.9-3.9-5.2-7.3-1.2-15.3.9-32,0-47.5,1-5-1.5-13.6,5.9-14.1h92.8c15.3-1.1,17.5-12.3,16.6-25.5-.8-10.8-5.1-14.7-15.6-16.5h-92.4c-2.9,0-5.8-1.5-6.2-4.5s-.4-13.3,0-17.1c.3-3.3,2-3.5,4.8-4.1,29.7.1,59.6,0,89.2,0,24.6.1,43.5,3,48,30.8,3.5,21.8,1.9,47.7-22.2,56-.8.3-2.6.2-3.1.7Z"/>
    <path class="st6" d="M804.2,447.1c13.5,25.1,26.4,50.5,40.3,75.4,1.3,3.3,1.5,4.7-1.7,6.7l-24.1.2c-1.1-.1-3.2-1-3.9-1.8-3-3.3-5.6-10.3-7.8-14.3-15.7-29.2-31.8-59.2-46.8-88.7-.8-1.6-2-6.1-4.3-6.1-1.7.2-2.2,2.1-2.9,3.2-3.7,6.3-6.7,13.3-10.1,19.9-5.7,11-12.1,21.9-17.1,33.2-.4.9-1.6,1.3-1.1,2.7l1.2.6c5.8-.6,13,.7,18.5,0,1.5-.2,3-3.1,4.3-4.2,13.8-12.2,33.6,6.1,23,20.8s-6.8,5.8-11.2,6.3c-5.1.6-9.7-2.2-15-2.5-9.1-.5-20.6-.3-29.7.3-.7,0-1.3-.5-2-.3-1.6.4-1.7,2-2.3,3.1-4.2,7.1-7.3,14.8-11.3,21.8s-3,5.6-6.4,6.1c-7.2-.7-15.8.9-22.8,0-3.5-.4-4.9-2.8-3.6-6.2,1.6-4.1,4.7-8.6,6.8-12.5,16.5-31.2,33.1-62.1,49.9-93.1,3.5-6.4,8.5-18.3,14.4-22.3,6.6-4.4,27.9-4,34.7.2,7.3,4.5,14.5,22,18.9,30,3.9,7.2,8.4,14.7,12.1,21.6ZM766.3,485.3c0-3.8-3.1-7-7-7s-7,3.1-7,7,3.1,7,7,7,7-3.1,7-7Z"/>
    <path class="st9" d="M491.4,394.3c.5.5,1.1,2.8,1.2,3.7.4,3.7.3,11.2,0,15s-1.9,5.3-5.9,5.6c-16.8,1.1-34.8-.9-51.7,0-1.8.2-2.5,2.5-2.7,4.1-.6,6.1.2,13.5.4,19.6-1.4,26.5,1.8,54.8,0,81-.2,3.2-.7,5.8-4.5,6.2s-15.5.5-19.3,0c-2.9-.4-5.4-2.5-5.5-5.5v-101.7c.1-1.9-.6-3.5-2.6-3.7l-54.3-.3c-1.2-.5-2.8-2.5-3-3.8-.5-2.8-.4-14,0-17.1.2-2,1.8-3.5,3.6-4.3l140-.2c.9,0,3.8,1,4.3,1.5Z"/>
    <path class="st10" d="M455.4,427.8c3.4-.5,7.1,0,9.7,2.2,2.1,1.8,2.7,4.7,5.2,5.9h106.2c2.6-.4,1.8-1.4,2.8-3,4-6.3,13.3-7.2,18.5-1.8,5.2,5.3,4.5,14.4-1.9,18.4-4.8,3-10.9,2.4-15-1.5-1.6-1.5-2.1-4.1-4.3-4.3h-106.3c-1.6.1-2.1,2.3-3,3.4-5.2,6.3-15.7,5.6-19.7-1.7-3.6-6.5,0-16.6,7.8-17.6ZM461.5,442.2c1.5-1.9.7-5.3-1.4-6.5-3.9-2.2-8.4,2.2-6.4,5.9s1.6,1.6,1.7,1.7c1.7.9,4.8.4,6-1.2ZM592.7,442.2c.4-.5.8-2.2.8-2.9,0-4.6-6.6-5.3-8.3-1.2-.7,1.8-.1,3.7,1.4,4.9s5,.7,6.1-.8Z"/>
    <circle class="st21" cx="85.6" cy="485.3" r="6.8"/>
    <path class="st20" d="M382.6,437.1c.6.9.6,2.8.4,3.9-1,4.2-9.6,4.1-8.4-2.7.7-3.8,6-4.2,8-1.2Z"/>
    <circle class="st19" cx="759.3" cy="485.3" r="7"/>
    <path class="st17" d="M461.5,442.2c-1.2,1.6-4.3,2.1-6,1.2s-1.6-1.6-1.7-1.7c-2.1-3.8,2.5-8.1,6.4-5.9,2.1,1.2,2.8,4.6,1.4,6.5Z"/>
    <path class="st18" d="M592.7,442.2c-1.2,1.5-4.6,2.1-6.1.8s-2.1-3-1.4-4.9c1.7-4.1,8.2-3.4,8.3,1.2,0,.7-.4,2.4-.8,2.9Z"/>
  </g>
  <g>
    <path class="st1" d="M184.9,73.5c-12.1,0-22,10.1-22,22.5,0,12.5,9.8,22.5,22,22.5,12.1,0,21.9-10.1,21.9-22.5,0-12.5-9.8-22.5-21.9-22.5Z"/>
    <polygon class="st11" points="6.4 160.7 24.5 160.7 24.5 252.2 55.1 252.2 55.1 160.7 73.3 160.7 73.3 137.8 6.4 137.8 6.4 160.7"/>
    <path class="st11" d="M146.1,143.3c-6.3-4.1-15.5-6.2-27.7-6.2-10.2,0-18.6,1.8-25,5.5-6.4,3.6-10.7,7.9-12.8,12.6-2.1,4.8-3.2,11.5-3.2,20.3v7.7s34,0,34,0v-11.9c0-6.4.3-10.3.9-11.8.6-1.5,2.1-2.2,4.6-2.2,2.2,0,3.7.9,4.6,2.7.9,1.8,1.4,5.7,1.4,11.5,0,4.8-.4,8-1.3,9.5-.8,1.5-7.2,4.5-19.1,8.9-11.1,4.1-18.1,7.7-20.9,10.8-2.8,3.1-4.2,8.9-4.2,17.3v9.3c0,11.5,2.6,18.9,7.9,22.3,5.3,3.4,11.1,5.1,17.4,5.1s9-1,12.5-3.1c3.5-2,6.3-5.1,8.5-9.2v10s35.4,0,35.4,0v-57c0-18.7-.6-31.1-1.9-37.1-1.2-6-5-11.1-11.2-15.2ZM122.9,222.1c0,5.7-.3,9.2-1,10.6-.7,1.3-2.2,2-4.4,2-2.4,0-4-.8-4.8-2.5-.8-1.7-1.2-5.5-1.2-11.4s.4-9.1,1.4-11.9c.9-2.7,4.3-6.1,10.1-10.2v23.4Z"/>
    <path class="st11" d="M398.7,142.2c-6.2-4.2-15.5-6.2-27.7-6.2-10.2,0-18.6,1.8-25,5.5-6.4,3.7-10.7,7.9-12.8,12.6-2.1,4.8-3.2,11.5-3.2,20.3v7.7s34,0,34,0v-11.9c0-6.4.3-10.4.9-11.9.6-1.5,2.1-2.2,4.6-2.2,2.2,0,3.7.9,4.6,2.7.9,1.8,1.4,5.7,1.4,11.6,0,4.8-.4,8-1.3,9.5-.8,1.5-7.2,4.5-19.1,8.9-11.1,4.1-18.1,7.7-20.9,10.8-2.8,3.1-4.2,8.9-4.2,17.4v9.3c0,11.5,2.6,18.9,7.9,22.3,5.3,3.4,11.1,5.1,17.4,5.1,4.8,0,9-1,12.5-3,3.5-2,6.4-5.1,8.6-9.2v10s35.4,0,35.4,0v-57c0-18.7-.6-31-1.9-37.1-1.3-6-5-11.1-11.2-15.2ZM375.4,221c0,5.7-.4,9.2-1,10.6-.7,1.3-2.2,2-4.5,2-2.4,0-4-.8-4.8-2.5-.8-1.7-1.2-5.5-1.2-11.4,0-5.2.4-9.1,1.4-11.8.9-2.7,4.3-6.1,10.1-10.2v23.4Z"/>
    <rect class="st11" x="169.6" y="137.8" width="30.6" height="114.5"/>
    <path class="st11" d="M296.7,137.8c-3.9,26.5-6.7,53.6-8.5,81.5l-3.7-43.8c-1.8-21.8-2.9-34.4-3.2-37.7h-31.7c-4.5,32.4-7.3,58.6-8.6,78.8l-3.1-38.9-3.2-39.9h-29.9s13.8,114.5,13.8,114.5h38c4.3-30.4,7.2-50.5,8.5-60.2,2.9,22.5,6,42.6,9.4,60.2h38.2s13.7-114.5,13.7-114.5h-29.9Z"/>
    <polygon class="st11" points="463.4 189.3 446.2 137.8 420.6 137.8 420.6 252.2 446.2 252.2 446.2 200.2 462.2 252.2 489 252.2 489 137.8 463.4 137.8 463.4 189.3"/>
    <path class="st11" d="M876.2,177c-1.5,99.4-78.2,175.4-177.4,177h0c-99.2-1.6-175.8-77.5-177.4-177h0C523,77.5,599.6,1.6,698.8,0h0c99.2,1.6,175.9,77.6,177.4,177Z"/>
    <path class="st11" d="M521.4,177c.3-20.1,3.8-39.2,9.8-57h-29.1s0,18.2,0,18.2h-7.9s0,18.5,0,18.5h7.9s0,59.3,0,59.3c0,11.7.4,19.1,1,22.2.7,3.1,2.4,5.9,5.1,8.3,2.7,2.4,5.9,4,9.4,4.6,3.4.6,9.1,1,16.9,1h.9s3.2,0,3.2,0c-10.6-22.6-16.6-48-17.1-75.2Z"/>
    <g>
      <path class="st11" d="M884.3,154c-2.4-5.7-6.6-10.3-12.3-13.9,2.6,11.9,4,24.2,4.2,36.9,0,6.4-.5,12.8-1.2,19h13.3s0-15.6,0-15.6c0-11.3-1.3-20.1-4-26.4Z"/>
      <path class="st11" d="M858.6,253.6c3.2-.6,6.1-1.3,8.7-2.4,5.3-2.2,9.7-5.5,13.1-9.9,3.4-4.4,5.6-8.5,6.6-12.4.9-3.9,1.4-9.5,1.4-16.7v-8.6s-14.3,0-14.3,0c-2.8,17.8-8,34.6-15.4,50.1Z"/>
    </g>
    <path class="st0" d="M572,266c-2.1-5.8-4-11.5-5.8-18.1h0c-14.7-4.9-9.5-3.7-10.4-5.3h0c-.6-1-2.8-5.2-4.7-13.4h0c-4.8-22.5-6.8-46.2-5.3-71h0c3.2-.4,8.5-.8,12.6-1.1h0c.5-7.9,1.1-14.9,2.2-22.5h0c-4.1.8-8.5,1.6-11.7,2.3h0c1-6.9,3.6-19.2,5-25.7h0c-11.1,2.6-22.5,7.7-22.5,7.7-2.9,5.7-10.8,39.5-10.9,57.6h0c.5,29.2,4.9,51.6,18.2,74.8h0c5,7.8,28.5,12.7,33.5,14.7Z"/>
    <path class="st16" d="M592.2,146.7c1-7.2,2-13.8,3.2-20.7h0c-11.3,1.4-20.2,3-28.5,4.5h0c-6.5,47.9-1.1,100.4,11.6,136.8h0c7.9,3.1,16.4,5.8,27,8.5h0c-4.4-15.2-7.7-32.2-10.1-52.9h0c-1.7-15.3-1.7-24.9-1.2-29.4h0c.6-4.5,2.2-7.7,5.4-10.2h0c3.3-2.5,7.9-3.7,15.6-3.6h0c-.2-20.8.7-39.9,2.5-59h0c-11.2,2.4-19,10.2-25.4,26Z"/>
    <path class="st13" d="M703.4,126.2c-8.2-6.4-18.9-9.1-34.2-8.8h0c-12.7.6-21.9,3.5-29.7,9.4h0c-7.8,6-12.3,12.1-15.1,19.6h0c-2.6,7.5-4,17.2-4,31.1h0c0,4,0,7.6.1,11.5h0c12.3.3,24.9.5,39.2.7h0c0-6.4,0-12.6,0-19h0c-.1-10.4.6-16.2,1.3-18.7h0c.9-2.4,2.5-3.6,5.7-3.7h0c2.8,0,4.6,1.3,5.7,4.1h0c1.1,2.9,1.6,8.7,1.6,18.6h0c0,7.8-.5,12.5-1.5,15.1h0c-1.4,2.5-8.9,7.2-23.2,14.1h0c-13.4,6.3-20.2,11-23.1,15.4h0c-2.9,4.6-3.7,12.4-2.4,24.1h0c.6,4.2,1,8.2,1.5,12.3h0c2.1,15.1,6.2,22.5,12.1,27.1h0c6.3,4.4,11.9,6.8,18.7,7.5h0c5.2.6,9.2,0,13-2h0c3.6-1.9,6.4-4.9,8.8-9.7h0c.2,4.1.5,7.7.7,11.2h0c13.2.7,25.8.7,39.2.2h0c1.1-20.6,1.9-45.8,2.3-76.5h0c.4-30.3-.6-49.9-2.3-59.8h0c-1.8-10-6.3-17.3-14.3-24ZM674.8,262.9c-.8,1.7-2.3,2.3-5,2.3h0c-2.9-.2-4.6-1.3-5.8-3.5h0c-1-2.3-1.9-6.7-2.4-15.1h0c-.5-7.3,0-12.7.8-16.8h0c1.2-4.2,4.7-8.6,12-15.2h0c.3,12.5.6,23.3,1,34.3h0c.3,8.2,0,12.2-.6,14Z"/>
    <path class="st14" d="M774.3,69.3c4.2,18,7.4,39,9.4,64.8h0c-3.7-4.9-7.5-8.2-12-10.9h0c-4.5-2.6-9.1-3.9-14.5-4.3h0c-7.2-.3-12.7,1.2-17.9,5.2h0c-5.3,4.2-8.3,8.7-9.8,14.3h0c-1.4,5.8-1.9,15-1.9,29.5h0c.1,29.5-.5,56.7-1.7,81.7h0c-.5,11.8-.3,18.7.8,23.1h0c1.2,4.5,3.8,7.6,8.2,10.4h0c4.5,2.7,9.3,3.4,15.5,2.8h0c4.6-.8,8.6-2,13.1-4.4h0c4.4-2.4,8.5-5.5,12.8-10h0c-.6,3.1-1.2,5.7-1.9,8.7h0c12.2-2.2,22.2-4.7,31.7-7.5h0c16.4-52.8,16.4-143.2,0-195.8h0c-9.6-2.9-19.6-5.3-31.7-7.5ZM781.1,242.1c-1.2,8.6-2.2,13.2-3.4,15.3h0c-1.2,2.2-2.7,3.2-5.3,3.6h0c-2.2.3-3.5-.4-3.9-2.1h0c-.6-1.8-.4-5.2.3-11.4h0c2.8-25.3,4.4-52.6,4-82h0c0-7.1.2-11.1.9-13.1h0c.9-2,2.2-2.7,4.8-2.7h0c2.5.1,4.2,1.1,4.9,3.4h0c.9,2.2,1.3,6.1,1.6,12.6h0c.4,27.3-1.1,52.6-4,76.4Z"/>
    <path class="st15" d="M857.8,210.8c-1,5.6-2,10.6-3.3,15.9h0c-1.5,6.1-2.8,9.6-4,11.9h0c-1.1,2.1-3.5,3.5-5.1,4.2h0c-1.3.5-2,.2-2-1.2h0c0-1.4.9-4.4,2.2-10.2h0c2.3-9,2.9-17.7,4-27.6h1.1c6-1,15.6-3.7,23.8-7.4h0c1.3-7.7,1-13,1-21h0c0-8.3-.5-18.4-1.8-26.2h0c-1.8-12.5-11-16.6-19.1-17.8-5.2-.8-12.3,0-16.9,2.9h0c-4.6,3-7.6,7.7-9.9,15.3h0c-2,7.7-2.8,17.7-3.1,31.7h0c-.3,15.6-1.8,29.5-3.9,44h0c-1.9,10.9-2.8,17.8-3,22.7h0c0,4.8.6,8.3,2.2,11.4h0c1.6,3,4.1,4.4,7.7,4.8h0c6.7.9,20.6-1.8,29.2-10.4,8.6-8.6,13.4-31.9,17.2-48.7h0c-1.5.5-10.8,4.8-16.5,5.8ZM851.1,158.4c0-2.2,3.1-3.4,5-3.3,2.7.1,3.2,1.5,3.7,3.6h0c.6,2,1.1,6.2,1.3,13.1h0c0,3.3,0,6.4,0,9.6h0c-3.5,1.3-7.4,1.1-10,1.3h0c.1-3.5.3-7.6,0-11h0c0-7.9-.4-11.4,0-13.2Z"/>
  </g>
</svg>