<?xml version="1.0" encoding="UTF-8"?>
<svg width="100%" height="100%" viewBox="0 0 240 78" version="1.1" xmlns="http://www.w3.org/2000/svg">
  <rect x="0" y="0" width="240" height="78" fill="#ffffff"/>
  <rect x="0" y="0" width="240" height="78" rx="0" fill="#d2d2d2"/><circle cx="76.8" cy="28.1" r="6.2" fill="#c9c9c9"/><path d="M28.8 64.0 L81.6 37.4 L120.0 53.0 L163.2 29.6 L216.0 64.0 Z" fill="#c9c9c9"/><circle cx="120" cy="34" r="11" fill="#ffffff" fill-opacity=".85"/><path d="M117.1 29.4 L117.1 38.6 L125.1 34.0 Z" fill="#262626"/><rect x="0" y="62" width="240" height="16" rx="0" fill="#000000" fill-opacity=".35"/><text x="8" y="72" font-family="'Noto Sans TC','Microsoft JhengHei','PingFang TC',sans-serif" font-size="6" fill="#ffffff" font-weight="bold" text-anchor="start">觀看平台：YouTube</text><rect x="106" y="69" width="12" height="2" rx="1" fill="#3d3d3d"/><circle cx="121" cy="70" r="1.6" fill="#c9c9c9"/><circle cx="128" cy="70" r="1.6" fill="#c9c9c9"/><circle cx="135" cy="70" r="1.6" fill="#c9c9c9"/><circle cx="214" cy="70" r="5" fill="#ffffff" fill-opacity=".8"/><circle cx="228" cy="70" r="5" fill="#ffffff" fill-opacity=".8"/>
</svg>
